<svg xmlns="http://www.w3.org/2000/svg" xmlns:xlink="http://www.w3.org/1999/xlink" width="500" zoomAndPan="magnify" viewBox="0 0 375 374.999991" height="500" preserveAspectRatio="xMidYMid meet" version="1.0"><defs><clipPath id="6d05e60ad9"><path d="M 37.5 123 L 246 123 L 246 331.890625 L 37.5 331.890625 Z M 37.5 123 " clip-rule="nonzero"/></clipPath><clipPath id="8ff37bc66d"><path d="M 241 43.140625 L 293 43.140625 L 293 129 L 241 129 Z M 241 43.140625 " clip-rule="nonzero"/></clipPath><clipPath id="718461105f"><path d="M 248 85 L 334.5 85 L 334.5 137 L 248 137 Z M 248 85 " clip-rule="nonzero"/></clipPath></defs><g clip-path="url(#6d05e60ad9)"><path fill="#4b9ddc" d="M 245.515625 227.804688 C 245.515625 285.238281 198.953125 331.796875 141.519531 331.796875 C 84.089844 331.796875 37.53125 285.238281 37.53125 227.804688 C 37.53125 170.371094 84.089844 123.8125 141.519531 123.8125 C 198.953125 123.8125 245.515625 170.371094 245.515625 227.804688 " fill-opacity="1" fill-rule="nonzero"/></g><path fill="#ffffff" d="M 232.4375 227.804688 C 232.4375 278.015625 191.734375 318.722656 141.519531 318.722656 C 91.308594 318.722656 50.605469 278.015625 50.605469 227.804688 C 50.605469 177.59375 91.308594 136.890625 141.519531 136.890625 C 191.734375 136.890625 232.4375 177.59375 232.4375 227.804688 " fill-opacity="1" fill-rule="nonzero"/><path fill="#4b9ddc" d="M 213.382812 227.804688 C 213.382812 267.492188 181.207031 299.664062 141.519531 299.664062 C 101.832031 299.664062 69.660156 267.492188 69.660156 227.804688 C 69.660156 188.117188 101.832031 155.941406 141.519531 155.941406 C 181.207031 155.941406 213.382812 188.117188 213.382812 227.804688 " fill-opacity="1" fill-rule="nonzero"/><path fill="#ffffff" d="M 192.878906 227.804688 C 192.878906 256.164062 169.882812 279.160156 141.519531 279.160156 C 113.160156 279.160156 90.164062 256.164062 90.164062 227.804688 C 90.164062 199.441406 113.160156 176.449219 141.519531 176.449219 C 169.882812 176.449219 192.878906 199.441406 192.878906 227.804688 " fill-opacity="1" fill-rule="nonzero"/><path fill="#4b9ddc" d="M 171.410156 227.804688 C 171.410156 244.3125 158.027344 257.695312 141.519531 257.695312 C 125.011719 257.695312 111.632812 244.3125 111.632812 227.804688 C 111.632812 211.296875 125.011719 197.914062 141.519531 197.914062 C 158.027344 197.914062 171.410156 211.296875 171.410156 227.804688 " fill-opacity="1" fill-rule="nonzero"/><path fill="#050419" d="M 142.914062 227.742188 C 141.09375 229.566406 141.09375 232.523438 142.914062 234.347656 C 144.742188 236.171875 147.699219 236.171875 149.519531 234.347656 L 280.128906 104.320312 C 281.949219 102.496094 281.949219 99.539062 280.128906 97.714844 C 278.304688 95.894531 275.347656 95.894531 273.523438 97.714844 L 142.914062 227.742188 " fill-opacity="1" fill-rule="nonzero"/><g clip-path="url(#8ff37bc66d)"><path fill="#ffd034" d="M 241.820312 128.980469 L 242.261719 93.3125 L 292.457031 43.117188 L 292.019531 78.785156 L 241.820312 128.980469 " fill-opacity="1" fill-rule="nonzero"/></g><g clip-path="url(#718461105f)"><path fill="#ffd034" d="M 248.867188 136.023438 L 284.53125 135.585938 L 334.726562 85.386719 L 299.0625 85.824219 L 248.867188 136.023438 " fill-opacity="1" fill-rule="nonzero"/></g></svg>