<svg xmlns="http://www.w3.org/2000/svg" xmlns:xlink="http://www.w3.org/1999/xlink" zoomAndPan="magnify" preserveAspectRatio="xMidYMid meet" version="1.0" viewBox="19.89 141.74 326.79 64.5"><defs><g/><clipPath id="d80d056648"><path d="M 19.894531 159 L 67 159 L 67 206.242188 L 19.894531 206.242188 Z M 19.894531 159 " clip-rule="nonzero"/></clipPath><clipPath id="b3c8ae8a7c"><path d="M 65 141.742188 L 77 141.742188 L 77 161 L 65 161 Z M 65 141.742188 " clip-rule="nonzero"/></clipPath><clipPath id="01cabdb8e7"><path d="M 67 151 L 85.894531 151 L 85.894531 163 L 67 163 Z M 67 151 " clip-rule="nonzero"/></clipPath></defs><g clip-path="url(#d80d056648)"><path fill="#4b9ddc" d="M 66.308594 182.945312 C 66.308594 195.757812 55.917969 206.148438 43.105469 206.148438 C 30.289062 206.148438 19.902344 195.757812 19.902344 182.945312 C 19.902344 170.128906 30.289062 159.742188 43.105469 159.742188 C 55.917969 159.742188 66.308594 170.128906 66.308594 182.945312 " fill-opacity="1" fill-rule="nonzero"/></g><path fill="#050419" d="M 63.390625 182.945312 C 63.390625 194.148438 54.308594 203.230469 43.105469 203.230469 C 31.902344 203.230469 22.820312 194.148438 22.820312 182.945312 C 22.820312 171.742188 31.902344 162.660156 43.105469 162.660156 C 54.308594 162.660156 63.390625 171.742188 63.390625 182.945312 " fill-opacity="1" fill-rule="nonzero"/><path fill="#4b9ddc" d="M 59.140625 182.945312 C 59.140625 191.800781 51.960938 198.976562 43.105469 198.976562 C 34.25 198.976562 27.070312 191.800781 27.070312 182.945312 C 27.070312 174.089844 34.25 166.910156 43.105469 166.910156 C 51.960938 166.910156 59.140625 174.089844 59.140625 182.945312 " fill-opacity="1" fill-rule="nonzero"/><path fill="#050419" d="M 54.5625 182.945312 C 54.5625 189.273438 49.433594 194.402344 43.105469 194.402344 C 36.777344 194.402344 31.648438 189.273438 31.648438 182.945312 C 31.648438 176.617188 36.777344 171.484375 43.105469 171.484375 C 49.433594 171.484375 54.5625 176.617188 54.5625 182.945312 " fill-opacity="1" fill-rule="nonzero"/><path fill="#4b9ddc" d="M 49.773438 182.945312 C 49.773438 186.628906 46.789062 189.613281 43.105469 189.613281 C 39.421875 189.613281 36.4375 186.628906 36.4375 182.945312 C 36.4375 179.261719 39.421875 176.273438 43.105469 176.273438 C 46.789062 176.273438 49.773438 179.261719 49.773438 182.945312 " fill-opacity="1" fill-rule="nonzero"/><path fill="#ffffff" d="M 43.417969 182.929688 C 43.007812 183.335938 43.007812 183.996094 43.417969 184.40625 C 43.824219 184.8125 44.484375 184.8125 44.890625 184.40625 L 74.03125 155.390625 C 74.4375 154.984375 74.4375 154.324219 74.03125 153.917969 C 73.625 153.511719 72.964844 153.511719 72.558594 153.917969 L 43.417969 182.929688 " fill-opacity="1" fill-rule="nonzero"/><g clip-path="url(#b3c8ae8a7c)"><path fill="#ffd034" d="M 65.484375 160.894531 L 65.582031 152.9375 L 76.78125 141.738281 L 76.683594 149.695312 L 65.484375 160.894531 " fill-opacity="1" fill-rule="nonzero"/></g><g clip-path="url(#01cabdb8e7)"><path fill="#ffd034" d="M 67.054688 162.464844 L 75.011719 162.367188 L 86.214844 151.167969 L 78.253906 151.265625 L 67.054688 162.464844 " fill-opacity="1" fill-rule="nonzero"/></g><g fill="#ffffff" fill-opacity="1"><g transform="translate(69.92748, 200.590328)"><g><path d="M 10.515625 -5.890625 L 26.078125 -5.890625 L 26.078125 0 L 3.171875 0 L 3.171875 -35.578125 L 10.515625 -35.578125 Z M 10.515625 -5.890625 "/></g></g></g><g fill="#ffffff" fill-opacity="1"><g transform="translate(97.774458, 200.590328)"><g><path d="M 18.03125 0 C 17.707031 -0.632812 17.472656 -1.425781 17.328125 -2.375 C 15.617188 -0.46875 13.394531 0.484375 10.65625 0.484375 C 8.0625 0.484375 5.910156 -0.257812 4.203125 -1.75 C 2.503906 -3.25 1.65625 -5.140625 1.65625 -7.421875 C 1.65625 -10.222656 2.691406 -12.375 4.765625 -13.875 C 6.847656 -15.375 9.851562 -16.132812 13.78125 -16.15625 L 17.03125 -16.15625 L 17.03125 -17.671875 C 17.03125 -18.890625 16.71875 -19.863281 16.09375 -20.59375 C 15.46875 -21.332031 14.476562 -21.703125 13.125 -21.703125 C 11.9375 -21.703125 11.003906 -21.414062 10.328125 -20.84375 C 9.648438 -20.269531 9.3125 -19.488281 9.3125 -18.5 L 2.25 -18.5 C 2.25 -20.03125 2.71875 -21.445312 3.65625 -22.75 C 4.601562 -24.050781 5.941406 -25.070312 7.671875 -25.8125 C 9.398438 -26.550781 11.335938 -26.921875 13.484375 -26.921875 C 16.742188 -26.921875 19.332031 -26.101562 21.25 -24.46875 C 23.164062 -22.832031 24.125 -20.53125 24.125 -17.5625 L 24.125 -6.109375 C 24.132812 -3.597656 24.484375 -1.703125 25.171875 -0.421875 L 25.171875 0 Z M 12.1875 -4.90625 C 13.238281 -4.90625 14.203125 -5.140625 15.078125 -5.609375 C 15.953125 -6.078125 16.601562 -6.703125 17.03125 -7.484375 L 17.03125 -12.015625 L 14.390625 -12.015625 C 10.859375 -12.015625 8.976562 -10.796875 8.75 -8.359375 L 8.71875 -7.9375 C 8.71875 -7.0625 9.023438 -6.335938 9.640625 -5.765625 C 10.265625 -5.191406 11.113281 -4.90625 12.1875 -4.90625 Z M 12.1875 -4.90625 "/></g></g></g><g fill="#ffffff" fill-opacity="1"><g transform="translate(125.352672, 200.590328)"><g><path d="M 9.21875 -26.4375 L 9.4375 -23.390625 C 11.320312 -25.742188 13.851562 -26.921875 17.03125 -26.921875 C 19.832031 -26.921875 21.914062 -26.097656 23.28125 -24.453125 C 24.65625 -22.816406 25.359375 -20.359375 25.390625 -17.078125 L 25.390625 0 L 18.328125 0 L 18.328125 -16.90625 C 18.328125 -18.40625 18 -19.492188 17.34375 -20.171875 C 16.695312 -20.847656 15.613281 -21.1875 14.09375 -21.1875 C 12.113281 -21.1875 10.625 -20.335938 9.625 -18.640625 L 9.625 0 L 2.5625 0 L 2.5625 -26.4375 Z M 9.21875 -26.4375 "/></g></g></g><g fill="#ffffff" fill-opacity="1"><g transform="translate(154.128112, 200.590328)"><g><path d="M 1.609375 -13.421875 C 1.609375 -17.535156 2.53125 -20.8125 4.375 -23.25 C 6.226562 -25.695312 8.757812 -26.921875 11.96875 -26.921875 C 14.539062 -26.921875 16.671875 -25.960938 18.359375 -24.046875 L 18.359375 -37.53125 L 25.4375 -37.53125 L 25.4375 0 L 19.0625 0 L 18.71875 -2.8125 C 16.957031 -0.613281 14.691406 0.484375 11.921875 0.484375 C 8.804688 0.484375 6.304688 -0.738281 4.421875 -3.1875 C 2.546875 -5.632812 1.609375 -9.046875 1.609375 -13.421875 Z M 8.671875 -12.90625 C 8.671875 -10.425781 9.101562 -8.523438 9.96875 -7.203125 C 10.832031 -5.890625 12.085938 -5.234375 13.734375 -5.234375 C 15.921875 -5.234375 17.460938 -6.148438 18.359375 -7.984375 L 18.359375 -18.421875 C 17.472656 -20.265625 15.945312 -21.1875 13.78125 -21.1875 C 10.375 -21.1875 8.671875 -18.425781 8.671875 -12.90625 Z M 8.671875 -12.90625 "/></g></g></g><g fill="#4b9ddc" fill-opacity="1"><g transform="translate(183.083722, 200.590328)"><g><path d="M 9.328125 -26.4375 L 9.5625 -23.484375 C 11.425781 -25.773438 13.957031 -26.921875 17.15625 -26.921875 C 20.5625 -26.921875 22.898438 -25.578125 24.171875 -22.890625 C 26.023438 -25.578125 28.671875 -26.921875 32.109375 -26.921875 C 34.972656 -26.921875 37.101562 -26.085938 38.5 -24.421875 C 39.90625 -22.753906 40.609375 -20.242188 40.609375 -16.890625 L 40.609375 0 L 33.53125 0 L 33.53125 -16.859375 C 33.53125 -18.359375 33.234375 -19.453125 32.640625 -20.140625 C 32.054688 -20.835938 31.023438 -21.1875 29.546875 -21.1875 C 27.429688 -21.1875 25.960938 -20.175781 25.140625 -18.15625 L 25.171875 0 L 18.109375 0 L 18.109375 -16.84375 C 18.109375 -18.375 17.804688 -19.476562 17.203125 -20.15625 C 16.597656 -20.84375 15.570312 -21.1875 14.125 -21.1875 C 12.125 -21.1875 10.675781 -20.351562 9.78125 -18.6875 L 9.78125 0 L 2.71875 0 L 2.71875 -26.4375 Z M 9.328125 -26.4375 "/></g></g></g><g fill="#4b9ddc" fill-opacity="1"><g transform="translate(227.154302, 200.590328)"><g><path d="M 18.03125 0 C 17.707031 -0.632812 17.472656 -1.425781 17.328125 -2.375 C 15.617188 -0.46875 13.394531 0.484375 10.65625 0.484375 C 8.0625 0.484375 5.910156 -0.257812 4.203125 -1.75 C 2.503906 -3.25 1.65625 -5.140625 1.65625 -7.421875 C 1.65625 -10.222656 2.691406 -12.375 4.765625 -13.875 C 6.847656 -15.375 9.851562 -16.132812 13.78125 -16.15625 L 17.03125 -16.15625 L 17.03125 -17.671875 C 17.03125 -18.890625 16.71875 -19.863281 16.09375 -20.59375 C 15.46875 -21.332031 14.476562 -21.703125 13.125 -21.703125 C 11.9375 -21.703125 11.003906 -21.414062 10.328125 -20.84375 C 9.648438 -20.269531 9.3125 -19.488281 9.3125 -18.5 L 2.25 -18.5 C 2.25 -20.03125 2.71875 -21.445312 3.65625 -22.75 C 4.601562 -24.050781 5.941406 -25.070312 7.671875 -25.8125 C 9.398438 -26.550781 11.335938 -26.921875 13.484375 -26.921875 C 16.742188 -26.921875 19.332031 -26.101562 21.25 -24.46875 C 23.164062 -22.832031 24.125 -20.53125 24.125 -17.5625 L 24.125 -6.109375 C 24.132812 -3.597656 24.484375 -1.703125 25.171875 -0.421875 L 25.171875 0 Z M 12.1875 -4.90625 C 13.238281 -4.90625 14.203125 -5.140625 15.078125 -5.609375 C 15.953125 -6.078125 16.601562 -6.703125 17.03125 -7.484375 L 17.03125 -12.015625 L 14.390625 -12.015625 C 10.859375 -12.015625 8.976562 -10.796875 8.75 -8.359375 L 8.71875 -7.9375 C 8.71875 -7.0625 9.023438 -6.335938 9.640625 -5.765625 C 10.265625 -5.191406 11.113281 -4.90625 12.1875 -4.90625 Z M 12.1875 -4.90625 "/></g></g></g><g fill="#4b9ddc" fill-opacity="1"><g transform="translate(254.732516, 200.590328)"><g><path d="M 17.5625 -19.8125 C 16.601562 -19.945312 15.757812 -20.015625 15.03125 -20.015625 C 12.351562 -20.015625 10.601562 -19.109375 9.78125 -17.296875 L 9.78125 0 L 2.71875 0 L 2.71875 -26.4375 L 9.390625 -26.4375 L 9.578125 -23.28125 C 10.992188 -25.707031 12.957031 -26.921875 15.46875 -26.921875 C 16.25 -26.921875 16.984375 -26.816406 17.671875 -26.609375 Z M 17.5625 -19.8125 "/></g></g></g><g fill="#4b9ddc" fill-opacity="1"><g transform="translate(273.734702, 200.590328)"><g><path d="M 12.3125 -10.609375 L 9.78125 -8.0625 L 9.78125 0 L 2.71875 0 L 2.71875 -37.53125 L 9.78125 -37.53125 L 9.78125 -16.734375 L 11.140625 -18.5 L 17.90625 -26.4375 L 26.390625 -26.4375 L 16.84375 -15.421875 L 27.21875 0 L 19.109375 0 Z M 12.3125 -10.609375 "/></g></g></g><g fill="#4b9ddc" fill-opacity="1"><g transform="translate(301.21518, 200.590328)"><g><path d="M 14.875 0.484375 C 11 0.484375 7.84375 -0.703125 5.40625 -3.078125 C 2.976562 -5.453125 1.765625 -8.617188 1.765625 -12.578125 L 1.765625 -13.265625 C 1.765625 -15.921875 2.273438 -18.296875 3.296875 -20.390625 C 4.328125 -22.484375 5.78125 -24.09375 7.65625 -25.21875 C 9.539062 -26.351562 11.6875 -26.921875 14.09375 -26.921875 C 17.71875 -26.921875 20.566406 -25.78125 22.640625 -23.5 C 24.710938 -21.226562 25.75 -18 25.75 -13.8125 L 25.75 -10.921875 L 8.921875 -10.921875 C 9.148438 -9.191406 9.835938 -7.804688 10.984375 -6.765625 C 12.128906 -5.722656 13.582031 -5.203125 15.34375 -5.203125 C 18.0625 -5.203125 20.1875 -6.1875 21.71875 -8.15625 L 25.1875 -4.28125 C 24.132812 -2.78125 22.703125 -1.609375 20.890625 -0.765625 C 19.085938 0.0664062 17.082031 0.484375 14.875 0.484375 Z M 14.078125 -21.21875 C 12.671875 -21.21875 11.53125 -20.742188 10.65625 -19.796875 C 9.789062 -18.847656 9.238281 -17.492188 9 -15.734375 L 18.8125 -15.734375 L 18.8125 -16.296875 C 18.78125 -17.859375 18.359375 -19.066406 17.546875 -19.921875 C 16.734375 -20.785156 15.578125 -21.21875 14.078125 -21.21875 Z M 14.078125 -21.21875 "/></g></g></g><g fill="#4b9ddc" fill-opacity="1"><g transform="translate(329.01329, 200.590328)"><g><path d="M 17.5625 -19.8125 C 16.601562 -19.945312 15.757812 -20.015625 15.03125 -20.015625 C 12.351562 -20.015625 10.601562 -19.109375 9.78125 -17.296875 L 9.78125 0 L 2.71875 0 L 2.71875 -26.4375 L 9.390625 -26.4375 L 9.578125 -23.28125 C 10.992188 -25.707031 12.957031 -26.921875 15.46875 -26.921875 C 16.25 -26.921875 16.984375 -26.816406 17.671875 -26.609375 Z M 17.5625 -19.8125 "/></g></g></g></svg>